<mxfile host="app.diagrams.net" agent="Mozilla/5.0 (Windows NT 10.0; Win64; x64) AppleWebKit/537.36 (KHTML, like Gecko) Chrome/129.0.0.0 Safari/537.36 Edg/129.0.0.0" version="24.7.16">
  <diagram name="Page-1" id="58cdce13-f638-feb5-8d6f-7d28b1aa9fa0">
    <mxGraphModel dx="1425" dy="765" grid="1" gridSize="10" guides="1" tooltips="1" connect="1" arrows="1" fold="1" page="1" pageScale="1" pageWidth="1100" pageHeight="850" background="none" math="0" shadow="0">
      <root>
        <mxCell id="0" />
        <mxCell id="1" parent="0" />
        <mxCell id="z0ilvGROeTh5ZAuoQpTQ-50" value="" style="group" parent="1" vertex="1" connectable="0">
          <mxGeometry x="150" y="275" width="830" height="300" as="geometry" />
        </mxCell>
        <mxCell id="z0ilvGROeTh5ZAuoQpTQ-12" value="" style="group;fontSize=10;" parent="z0ilvGROeTh5ZAuoQpTQ-50" vertex="1" connectable="0">
          <mxGeometry x="110" y="100" width="80" height="50" as="geometry" />
        </mxCell>
        <mxCell id="z0ilvGROeTh5ZAuoQpTQ-7" value="&lt;font style=&quot;font-size: 11px;&quot;&gt;&amp;nbsp; &amp;nbsp; &amp;nbsp; Available&lt;/font&gt;&lt;div style=&quot;font-size: 11px;&quot;&gt;&lt;font style=&quot;font-size: 11px;&quot;&gt;&lt;br&gt;&lt;/font&gt;&lt;/div&gt;&lt;div style=&quot;font-size: 11px;&quot;&gt;&lt;font style=&quot;font-size: 11px;&quot;&gt;&lt;br&gt;&lt;/font&gt;&lt;/div&gt;&lt;div style=&quot;font-size: 11px;&quot;&gt;&lt;font style=&quot;font-size: 11px;&quot;&gt;&lt;br&gt;&lt;/font&gt;&lt;/div&gt;" style="rounded=1;whiteSpace=wrap;html=1;align=left;arcSize=35;" parent="z0ilvGROeTh5ZAuoQpTQ-12" vertex="1">
          <mxGeometry width="80" height="50" as="geometry" />
        </mxCell>
        <mxCell id="z0ilvGROeTh5ZAuoQpTQ-10" value="" style="endArrow=none;html=1;rounded=0;exitX=0.017;exitY=0.248;exitDx=0;exitDy=0;entryX=0.986;entryY=0.242;entryDx=0;entryDy=0;entryPerimeter=0;exitPerimeter=0;" parent="z0ilvGROeTh5ZAuoQpTQ-12" source="z0ilvGROeTh5ZAuoQpTQ-7" target="z0ilvGROeTh5ZAuoQpTQ-7" edge="1">
          <mxGeometry width="50" height="50" relative="1" as="geometry">
            <mxPoint x="232" y="57.142857142857146" as="sourcePoint" />
            <mxPoint x="272" y="21.42857142857143" as="targetPoint" />
          </mxGeometry>
        </mxCell>
        <mxCell id="z0ilvGROeTh5ZAuoQpTQ-24" value="" style="group;fontSize=10;" parent="z0ilvGROeTh5ZAuoQpTQ-50" vertex="1" connectable="0">
          <mxGeometry x="320" y="100" width="80" height="50" as="geometry" />
        </mxCell>
        <mxCell id="z0ilvGROeTh5ZAuoQpTQ-25" value="&lt;font style=&quot;font-size: 11px;&quot;&gt;&amp;nbsp; &amp;nbsp; &amp;nbsp; Booked&lt;/font&gt;&lt;div style=&quot;font-size: 11px;&quot;&gt;&lt;br&gt;&lt;/div&gt;&lt;div style=&quot;font-size: 11px;&quot;&gt;&lt;font style=&quot;font-size: 11px;&quot;&gt;&lt;br&gt;&lt;/font&gt;&lt;/div&gt;&lt;div style=&quot;font-size: 11px;&quot;&gt;&lt;font style=&quot;font-size: 11px;&quot;&gt;&lt;br&gt;&lt;/font&gt;&lt;/div&gt;" style="rounded=1;whiteSpace=wrap;html=1;align=left;arcSize=35;" parent="z0ilvGROeTh5ZAuoQpTQ-24" vertex="1">
          <mxGeometry width="80" height="50" as="geometry" />
        </mxCell>
        <mxCell id="z0ilvGROeTh5ZAuoQpTQ-26" value="" style="endArrow=none;html=1;rounded=0;exitX=0.017;exitY=0.248;exitDx=0;exitDy=0;entryX=0.986;entryY=0.242;entryDx=0;entryDy=0;entryPerimeter=0;exitPerimeter=0;" parent="z0ilvGROeTh5ZAuoQpTQ-24" source="z0ilvGROeTh5ZAuoQpTQ-25" target="z0ilvGROeTh5ZAuoQpTQ-25" edge="1">
          <mxGeometry width="50" height="50" relative="1" as="geometry">
            <mxPoint x="232" y="57.142857142857146" as="sourcePoint" />
            <mxPoint x="272" y="21.42857142857143" as="targetPoint" />
          </mxGeometry>
        </mxCell>
        <mxCell id="z0ilvGROeTh5ZAuoQpTQ-27" value="" style="curved=1;endArrow=classic;html=1;rounded=0;exitX=1;exitY=0.5;exitDx=0;exitDy=0;entryX=0;entryY=0.5;entryDx=0;entryDy=0;" parent="z0ilvGROeTh5ZAuoQpTQ-50" source="z0ilvGROeTh5ZAuoQpTQ-7" target="z0ilvGROeTh5ZAuoQpTQ-25" edge="1">
          <mxGeometry width="50" height="50" relative="1" as="geometry">
            <mxPoint x="260" y="170" as="sourcePoint" />
            <mxPoint x="310" y="120" as="targetPoint" />
            <Array as="points">
              <mxPoint x="260" y="120" />
            </Array>
          </mxGeometry>
        </mxCell>
        <mxCell id="z0ilvGROeTh5ZAuoQpTQ-28" value="User books a seat" style="edgeLabel;html=1;align=center;verticalAlign=middle;resizable=0;points=[];" parent="z0ilvGROeTh5ZAuoQpTQ-27" vertex="1" connectable="0">
          <mxGeometry x="-0.2872" y="-1" relative="1" as="geometry">
            <mxPoint x="24" y="-3" as="offset" />
          </mxGeometry>
        </mxCell>
        <mxCell id="z0ilvGROeTh5ZAuoQpTQ-32" value="" style="curved=1;endArrow=classic;html=1;rounded=0;entryX=0;entryY=0.5;entryDx=0;entryDy=0;exitX=1.01;exitY=0.456;exitDx=0;exitDy=0;exitPerimeter=0;" parent="z0ilvGROeTh5ZAuoQpTQ-50" source="z0ilvGROeTh5ZAuoQpTQ-25" target="vCDdzbVf3O9YJDfacsH3-4" edge="1">
          <mxGeometry width="50" height="50" relative="1" as="geometry">
            <mxPoint x="340" y="190" as="sourcePoint" />
            <mxPoint x="430" y="262.5" as="targetPoint" />
            <Array as="points">
              <mxPoint x="450" y="123" />
            </Array>
          </mxGeometry>
        </mxCell>
        <mxCell id="z0ilvGROeTh5ZAuoQpTQ-34" value="Payment is completed" style="edgeLabel;html=1;align=center;verticalAlign=middle;resizable=0;points=[];" parent="z0ilvGROeTh5ZAuoQpTQ-32" vertex="1" connectable="0">
          <mxGeometry x="0.0463" y="1" relative="1" as="geometry">
            <mxPoint as="offset" />
          </mxGeometry>
        </mxCell>
        <mxCell id="z0ilvGROeTh5ZAuoQpTQ-37" value="" style="curved=1;endArrow=classic;html=1;rounded=0;entryX=0.88;entryY=-0.008;entryDx=0;entryDy=0;entryPerimeter=0;exitX=0.835;exitY=-0.032;exitDx=0;exitDy=0;exitPerimeter=0;" parent="z0ilvGROeTh5ZAuoQpTQ-50" source="z0ilvGROeTh5ZAuoQpTQ-25" target="z0ilvGROeTh5ZAuoQpTQ-7" edge="1">
          <mxGeometry width="50" height="50" relative="1" as="geometry">
            <mxPoint x="335" y="60" as="sourcePoint" />
            <mxPoint x="385" y="10" as="targetPoint" />
            <Array as="points">
              <mxPoint x="385" y="60" />
              <mxPoint x="350" y="20" />
              <mxPoint x="210" y="30" />
            </Array>
          </mxGeometry>
        </mxCell>
        <mxCell id="z0ilvGROeTh5ZAuoQpTQ-38" value="User cancelled payment" style="edgeLabel;html=1;align=center;verticalAlign=middle;resizable=0;points=[];" parent="z0ilvGROeTh5ZAuoQpTQ-37" vertex="1" connectable="0">
          <mxGeometry x="-0.0416" y="1" relative="1" as="geometry">
            <mxPoint as="offset" />
          </mxGeometry>
        </mxCell>
        <mxCell id="z0ilvGROeTh5ZAuoQpTQ-41" value="" style="curved=1;endArrow=classic;html=1;rounded=0;entryX=0.5;entryY=1;entryDx=0;entryDy=0;exitX=0.5;exitY=1;exitDx=0;exitDy=0;" parent="z0ilvGROeTh5ZAuoQpTQ-50" source="z0ilvGROeTh5ZAuoQpTQ-25" target="z0ilvGROeTh5ZAuoQpTQ-7" edge="1">
          <mxGeometry width="50" height="50" relative="1" as="geometry">
            <mxPoint x="400" y="280" as="sourcePoint" />
            <mxPoint x="450" y="230" as="targetPoint" />
            <Array as="points">
              <mxPoint x="330" y="190" />
              <mxPoint x="300" y="210" />
              <mxPoint x="180" y="200" />
            </Array>
          </mxGeometry>
        </mxCell>
        <mxCell id="z0ilvGROeTh5ZAuoQpTQ-42" value="Payment failed" style="edgeLabel;html=1;align=center;verticalAlign=middle;resizable=0;points=[];" parent="z0ilvGROeTh5ZAuoQpTQ-41" vertex="1" connectable="0">
          <mxGeometry x="0.1676" y="2" relative="1" as="geometry">
            <mxPoint x="39" as="offset" />
          </mxGeometry>
        </mxCell>
        <mxCell id="vCDdzbVf3O9YJDfacsH3-4" value="" style="ellipse;html=1;shape=endState;fillColor=#000000;strokeColor=#ff0000;" parent="z0ilvGROeTh5ZAuoQpTQ-50" vertex="1">
          <mxGeometry x="560" y="110" width="30" height="30" as="geometry" />
        </mxCell>
        <mxCell id="vCDdzbVf3O9YJDfacsH3-5" value="Sold" style="text;html=1;align=center;verticalAlign=middle;resizable=0;points=[];autosize=1;strokeColor=none;fillColor=none;" parent="z0ilvGROeTh5ZAuoQpTQ-50" vertex="1">
          <mxGeometry x="550" y="80" width="50" height="30" as="geometry" />
        </mxCell>
        <mxCell id="vCDdzbVf3O9YJDfacsH3-3" value="" style="ellipse;whiteSpace=wrap;html=1;aspect=fixed;" parent="1" vertex="1">
          <mxGeometry x="120" y="387.5" width="25" height="25" as="geometry" />
        </mxCell>
        <mxCell id="vCDdzbVf3O9YJDfacsH3-7" value="" style="curved=1;endArrow=classic;html=1;rounded=0;exitX=1;exitY=0.5;exitDx=0;exitDy=0;entryX=0;entryY=0.5;entryDx=0;entryDy=0;" parent="1" source="vCDdzbVf3O9YJDfacsH3-3" target="z0ilvGROeTh5ZAuoQpTQ-7" edge="1">
          <mxGeometry width="50" height="50" relative="1" as="geometry">
            <mxPoint x="360" y="400" as="sourcePoint" />
            <mxPoint x="410" y="350" as="targetPoint" />
            <Array as="points">
              <mxPoint x="230" y="400" />
            </Array>
          </mxGeometry>
        </mxCell>
        <mxCell id="vCDdzbVf3O9YJDfacsH3-8" value="Seat created" style="edgeLabel;html=1;align=center;verticalAlign=middle;resizable=0;points=[];" parent="vCDdzbVf3O9YJDfacsH3-7" vertex="1" connectable="0">
          <mxGeometry x="-0.2506" relative="1" as="geometry">
            <mxPoint as="offset" />
          </mxGeometry>
        </mxCell>
      </root>
    </mxGraphModel>
  </diagram>
</mxfile>
